<?xml version="1.0" encoding="UTF-8" standalone="no"?>
<svg
   id="Layer_1"
   data-name="Layer 1"
   viewBox="0 0 150 150"
   version="1.1"
   sodipodi:docname="chack_logo.svg"
   inkscape:version="1.4.4 (dcaf3e7, 2026-05-05)"
   width="150"
   height="150"
   xmlns:inkscape="http://www.inkscape.org/namespaces/inkscape"
   xmlns:sodipodi="http://sodipodi.sourceforge.net/DTD/sodipodi-0.dtd"
   xmlns="http://www.w3.org/2000/svg"
   xmlns:svg="http://www.w3.org/2000/svg">
  <sodipodi:namedview
     id="namedview26"
     pagecolor="#ffffff"
     bordercolor="#000000"
     borderopacity="0.25"
     inkscape:showpageshadow="2"
     inkscape:pageopacity="0.0"
     inkscape:pagecheckerboard="0"
     inkscape:deskcolor="#d1d1d1"
     inkscape:zoom="3.3462464"
     inkscape:cx="66.641836"
     inkscape:cy="74.859999"
     inkscape:window-width="1366"
     inkscape:window-height="697"
     inkscape:window-x="-8"
     inkscape:window-y="-8"
     inkscape:window-maximized="1"
     inkscape:current-layer="Layer_1" />
  <defs
     id="defs1">
    <style
       id="style1">.cls-1{fill:#231f20;}.cls-2{fill:#3e80a9;}.cls-3{fill:#c34e4b;}.cls-4{fill:#3d84af;}.cls-5{fill:#d8a300;}.cls-6{fill:#89b108;}.cls-7{fill:#fff;}</style>
  </defs>
  <g
     id="g30"
     transform="translate(-0.32582532,-5.8092465)">
    <g
       id="g26"
       inkscape:label="red"
       transform="translate(-4.1837924,10.459481)">
      <path
         id="path15"
         class="cls-3"
         d="M 46.660156,10 A 28.09,28.09 0 1 0 74.75,38.060547 28.09,28.09 0 0 0 46.660156,10 Z m -9.371094,10.900391 10.800782,10.548828 -4.669922,4.791015 -7.259766,1 a 24.46,24.46 0 0 1 -7.669922,-7 l 0.419922,-0.380859 H 31.5 l 4.789062,-5.580078 v -2.769531 z m 2.521485,6.316406 C 39.298124,27.24441 39,27.660156 39,27.660156 l -3.839844,3.789063 c 0,0 -0.860547,1.231406 -0.310547,1.941406 1.15,1.51 3.871094,0 3.871094,0 0,0 2.689766,-1.841172 3.509766,-2.451172 0.82,-0.62 0.04883,-1.849609 0.04883,-1.849609 a 13,13 0 0 0 -1.439453,-1.429688 c -0.35,-0.3125 -0.661719,-0.429931 -0.923828,-0.443359 -0.03604,-0.0018 -0.07131,-0.0018 -0.105469,0 z M 49.289062,32.580078 63.939453,47 58.640625,52.300781 57,52.810547 56.689453,51.220703 54.900391,51.779297 V 50.199219 L 53,50.710938 52.679688,49 50.900391,49.630859 50.75,47.939453 48.900391,48.609375 48.800781,46.919922 47,47.480469 46.830078,45.839844 45,46.349609 44.869141,44.820312 43,45.279297 42.179688,43.75 39.789062,44.310547 v -1.53125 l -1.189453,0.509765 0.320313,-1.689453 -1.900391,0.720703 -0.289062,-1.90039 1.080078,-1.839844 6.669922,-1 z m 8.820313,13.210938 a 1.28,1.28 0 1 0 -0.05859,2.558593 1.28,1.28 0 0 0 1.279297,-1.279297 1.28,1.28 0 0 0 -1.220703,-1.279296 z" />
    </g>
    <g
       id="g29"
       inkscape:label="green"
       transform="translate(-4.1837924,10.459481)">
      <path
         id="path18"
         class="cls-6"
         d="m 112.35938,74.519531 a 28.09,28.09 0 1 0 28.08984,28.089849 28.09,28.09 0 0 0 -28.08984,-28.089849 z m -0.16016,13.111328 c 5,0 10,0.939375 10,2.109375 v 2.660157 a 19.17,19.17 0 0 1 -3.51953,1.40039 c 0.01,0.67 -0.39063,1.669922 -0.39063,2.669922 l 4,-3.720703 c 2.18,-3.33 4.60094,-3.939453 4.71094,-3.939453 l 0.4707,-0.08984 -0.29101,0.429688 a 13.52,13.52 0 0 1 -4.59961,4.269531 c -0.95,0.84 -2.49938,2.230156 -4.35938,3.910156 0,4.919998 0.07,11.750618 0,12.390618 v 0.16016 c 2.38,0.99 2.24024,1.35 2.24024,1.5 v 0.0684 a 2.66,2.66 0 0 1 0.75976,0.65039 c 0.51,0.48 2.02946,2.18 -0.31054,4 -2.76,2.12 -7.30078,2 -8.30078,2 -1,0 -6.40001,-0.18914 -9,-1.61914 -2.02,-1.11 -0.89883,-3.22133 -0.29883,-4.11133 0.23,-0.63 1.17031,-1.19891 2.57031,-1.62891 l 0.13867,-0.41992 c 0,0 0.0605,-0.77 0.0605,-2 l -7.279299,6.58985 c 0.13,-0.35 3.279299,-3.39039 7.279299,-7.15039 0.04,-1.22 0.0898,-2.76915 0.0898,-4.36915 -1.13,-1.17 -1.6507,-2.28124 -1.4707,-3.28124 a 3.08,3.08 0 0 1 1.40039,-2.000001 12,12 0 0 0 -0.36914,-3.5 c -0.19,-0.38 -0.62047,-0.72 -0.73047,-1 a 18.28,18.28 0 0 1 -2.80078,-1.269531 v -2.650391 c 0,-1.14 5,-2.058594 10,-2.058594 z m 0.1914,1.458985 c -1.32,0 -2.40039,0.229765 -2.40039,0.509765 0,0.28 1.0804,0.509766 2.40039,0.509766 l 0.01,-0.0293 c 1.33,0 2.38867,-0.200469 2.38867,-0.480469 0,-0.28 -1.07843,-0.509765 -2.39844,-0.509765 z m 14.09961,0.371094 a 9.35,9.35 0 0 0 -3.75585,3.390624 13.34,13.34 0 0 0 3.75585,-3.390624 z m -20.18945,9.158203 a 2.65,2.65 0 0 0 -1.08008,1.570309 3.3,3.3 0 0 0 1,2.6211 l 0.01,-0.0312 c 0.02,-1.45 0.0403,-2.910159 0.0703,-4.160159 z m 12.03906,11.749999 a 2.39,2.39 0 0 0 0.13086,0.28125 9.08,9.08 0 0 1 1.45899,0.51953 l 0.01,-0.0293 a 10.81,10.81 0 0 0 -1.59961,-0.77148 z" />
    </g>
    <g
       id="g27"
       inkscape:label="blue"
       transform="translate(-4.1837924,10.459481)">
      <path
         id="path16"
         class="cls-4"
         d="M 112.32031,10 A 28.09,28.09 0 1 0 140.41016,38.060547 28.09,28.09 0 0 0 112.32031,10 Z m 0.83985,16.730469 h 2 l -3.51954,23.339843 h -1.96093 z m -4.3711,3.230469 v 4.388671 l -6.72851,4.13086 6.72851,4.279297 v 4.359375 L 99.150391,40.390625 V 36.660156 Z M 116.07031,30 l 9.65039,6.699219 v 3.701172 l -9.65039,6.730468 v -4.361328 l 6.74024,-4.25 -6.74024,-4.199219 z" />
    </g>
    <g
       id="g28"
       inkscape:label="yellow"
       transform="translate(-4.1837924,10.459481)">
      <path
         id="path17"
         class="cls-5"
         d="M 48,74.519531 A 28.09,28.09 0 1 0 76.089844,102.60938 28.09,28.09 0 0 0 48,74.519531 Z m -7.589844,13 c 0.46,0 0.589844,0.370313 0.589844,0.820313 v 3.890625 h 4.669922 v -3.890625 c 0,-0.45 0.139844,-0.820313 0.589844,-0.820313 0.45,0 0.589843,0.370313 0.589843,0.820313 v 3.871094 h 2.34961 v 4.699218 h -0.878907 a 5,5 0 0 1 -0.701171,2.619141 c -0.63,1.340003 -1.53961,3.271403 -2.09961,4.441403 h 0.640625 c 0.18,0 0.330078,0.40985 0.330078,0.58985 0,0.18 -0.150078,0.58984 -0.330078,0.58984 h -0.929687 c -0.04152,0 -0.123925,0.0192 -0.21875,0.0508 0.02487,0.0739 0.07273,0.26707 -0.01172,0.47071 0.669897,0.0792 0.669922,0.22454 0.669922,0.39843 v 0.0605 c 0,0.25 -0.550781,0.19922 -0.800781,0.19922 h -0.699219 a 9.74,9.74 0 0 0 0.859375,4.25976 c 1.11,3.14 3.009922,5 5.669922,5 a 4.86,4.86 0 0 0 3.720703,-1.43945 10.21,10.21 0 0 0 2.359375,-5.32031 A 19.91,19.91 0 0 0 57.089844,105 v -0.0996 c -0.03,-0.89 -0.119297,-3.59062 1.720703,-5.140624 1.19,-1.02 3.008906,-1.30008 5.378906,-0.830078 l -0.298828,1.400392 c -1.85,-0.390004 -3.231562,-0.22024 -4.101563,0.50976 -1.309999,1.11 -1.208984,3.28 -1.208984,4 v 0.0703 c 0,0.28 0.170156,6.86968 -3.089844,10.17968 a 6.22,6.22 0 0 1 -4.609375,1.82032 c -0.05,0 -0.160156,-0.10938 -0.160156,-0.10938 -5.81,-0.12 -7.681406,-5.75117 -7.941406,-10.45117 h -0.878906 c -0.26,0 -0.890625,0.0508 -0.890625,-0.19922 v -0.0606 c 0,-0.19143 -0.0012,-0.35002 0.892578,-0.42187 -0.107239,-0.18147 -0.138764,-0.35267 -0.148438,-0.43945 -0.09274,-0.0356 -0.176826,-0.0586 -0.224609,-0.0586 h -0.919922 c -0.18,0 -0.330078,-0.40984 -0.330078,-0.58984 0,-0.18 0.150078,-0.58985 0.330078,-0.58985 h 0.630859 c -0.57,-1.17 -1.479375,-3.09945 -2.109375,-4.439449 a 5,5 0 0 1 -0.701171,-2.621093 h -1 v -4.699219 h 2.40039 v -3.890625 c 0,-0.45 0.120078,-0.820313 0.580078,-0.820313 z" />
    </g>
  </g>
</svg>
